<mxfile>
    <diagram id="NIw_FQb0Eef6lGzpP2gn" name="ページ1">
        <mxGraphModel dx="479" dy="927" grid="1" gridSize="10" guides="1" tooltips="1" connect="1" arrows="1" fold="1" page="1" pageScale="1" pageWidth="827" pageHeight="1169" math="0" shadow="0">
            <root>
                <mxCell id="0"/>
                <mxCell id="1" parent="0"/>
                <mxCell id="44" value="" style="whiteSpace=wrap;html=1;fillColor=none;strokeWidth=2;editable=1;" vertex="1" parent="1">
                    <mxGeometry x="570" y="439" width="160" height="270" as="geometry"/>
                </mxCell>
                <mxCell id="42" value="" style="whiteSpace=wrap;html=1;strokeColor=#666666;fontColor=#333333;fillColor=none;" vertex="1" parent="1">
                    <mxGeometry x="570" y="299" width="160" height="570" as="geometry"/>
                </mxCell>
                <mxCell id="2" value="" style="whiteSpace=wrap;html=1;strokeColor=#666666;fontColor=#333333;" parent="1" vertex="1">
                    <mxGeometry x="40" y="300" width="260" height="570" as="geometry"/>
                </mxCell>
                <mxCell id="17" value="" style="group" parent="1" vertex="1" connectable="0">
                    <mxGeometry x="40" y="350" width="260" height="494" as="geometry"/>
                </mxCell>
                <mxCell id="9" value="" style="rounded=1;whiteSpace=wrap;html=1;fillColor=#f8cecc;align=left;strokeColor=#b85450;" parent="17" vertex="1">
                    <mxGeometry y="434" width="260" height="60" as="geometry"/>
                </mxCell>
                <mxCell id="10" value="" style="rounded=1;whiteSpace=wrap;html=1;fillColor=#f8cecc;align=left;strokeColor=#b85450;" parent="17" vertex="1">
                    <mxGeometry y="372" width="260" height="60" as="geometry"/>
                </mxCell>
                <mxCell id="11" value="" style="rounded=1;whiteSpace=wrap;html=1;fillColor=#ffe6cc;align=left;strokeColor=#d79b00;" parent="17" vertex="1">
                    <mxGeometry y="310" width="260" height="60" as="geometry"/>
                </mxCell>
                <mxCell id="12" value="" style="rounded=1;whiteSpace=wrap;html=1;fillColor=#d5e8d4;align=left;strokeColor=#82b366;" parent="17" vertex="1">
                    <mxGeometry y="248" width="260" height="60" as="geometry"/>
                </mxCell>
                <mxCell id="13" value="" style="rounded=1;whiteSpace=wrap;html=1;fillColor=#d5e8d4;align=left;strokeColor=#82b366;" parent="17" vertex="1">
                    <mxGeometry y="186" width="260" height="60" as="geometry"/>
                </mxCell>
                <mxCell id="14" value="" style="rounded=1;whiteSpace=wrap;html=1;fillColor=#d5e8d4;align=left;strokeColor=#82b366;" parent="17" vertex="1">
                    <mxGeometry y="124" width="260" height="60" as="geometry"/>
                </mxCell>
                <mxCell id="15" value="" style="rounded=1;whiteSpace=wrap;html=1;fillColor=#ffe6cc;align=left;strokeColor=#d79b00;" parent="17" vertex="1">
                    <mxGeometry y="62" width="260" height="60" as="geometry"/>
                </mxCell>
                <mxCell id="16" value="" style="rounded=1;whiteSpace=wrap;html=1;fillColor=#f8cecc;align=left;strokeColor=#b85450;" parent="17" vertex="1">
                    <mxGeometry width="260" height="60" as="geometry"/>
                </mxCell>
                <mxCell id="4" value="ScrollViewContent" style="text;html=1;strokeColor=none;fillColor=none;align=left;verticalAlign=middle;whiteSpace=wrap;rounded=0;" parent="1" vertex="1">
                    <mxGeometry x="50" y="310" width="100" height="20" as="geometry"/>
                </mxCell>
                <mxCell id="5" value="" style="whiteSpace=wrap;html=1;fillColor=none;strokeWidth=2;editable=1;" parent="1" vertex="1">
                    <mxGeometry x="40" y="440" width="260" height="270" as="geometry"/>
                </mxCell>
                <mxCell id="6" value="Actual Window View" style="text;html=1;strokeColor=none;fillColor=none;align=left;verticalAlign=middle;whiteSpace=wrap;rounded=0;" parent="1" vertex="1">
                    <mxGeometry x="50" y="450" width="160" height="20" as="geometry"/>
                </mxCell>
                <mxCell id="8" value="" style="rounded=0;whiteSpace=wrap;html=1;align=left;fillColor=#BDBDBD;" parent="1" vertex="1">
                    <mxGeometry x="280" y="440" width="20" height="270" as="geometry"/>
                </mxCell>
                <mxCell id="7" value="" style="rounded=1;whiteSpace=wrap;html=1;align=left;rotation=-90;" parent="1" vertex="1">
                    <mxGeometry x="229.88" y="566.88" width="120" height="16.25" as="geometry"/>
                </mxCell>
                <mxCell id="37" value="" style="group" vertex="1" connectable="0" parent="1">
                    <mxGeometry x="360" y="300" width="160" height="570" as="geometry"/>
                </mxCell>
                <mxCell id="21" value="" style="rounded=1;whiteSpace=wrap;html=1;fillColor=#f8cecc;align=left;strokeColor=#b85450;" vertex="1" parent="37">
                    <mxGeometry y="410" width="160" height="160" as="geometry"/>
                </mxCell>
                <mxCell id="26" value="" style="rounded=1;whiteSpace=wrap;html=1;fillColor=#d5e8d4;align=left;strokeColor=#82b366;" vertex="1" parent="37">
                    <mxGeometry y="140" width="160" height="270" as="geometry"/>
                </mxCell>
                <mxCell id="28" value="" style="rounded=1;whiteSpace=wrap;html=1;fillColor=#f8cecc;align=left;strokeColor=#b85450;" vertex="1" parent="37">
                    <mxGeometry width="160" height="140" as="geometry"/>
                </mxCell>
                <mxCell id="19" value="" style="whiteSpace=wrap;html=1;strokeColor=#666666;fontColor=#333333;fillColor=none;" vertex="1" parent="37">
                    <mxGeometry width="160" height="570" as="geometry"/>
                </mxCell>
                <mxCell id="29" value="ScrollViewContent" style="text;html=1;strokeColor=none;fillColor=none;align=left;verticalAlign=middle;whiteSpace=wrap;rounded=0;" vertex="1" parent="37">
                    <mxGeometry x="6.153846153846154" y="10" width="61.53846153846154" height="20" as="geometry"/>
                </mxCell>
                <mxCell id="30" value="" style="whiteSpace=wrap;html=1;fillColor=none;strokeWidth=2;editable=1;" vertex="1" parent="37">
                    <mxGeometry y="140" width="160" height="270" as="geometry"/>
                </mxCell>
                <mxCell id="31" value="Actual Window View" style="text;html=1;strokeColor=none;fillColor=none;align=left;verticalAlign=middle;whiteSpace=wrap;rounded=0;" vertex="1" parent="37">
                    <mxGeometry x="6.153846153846154" y="150" width="98.46153846153847" height="20" as="geometry"/>
                </mxCell>
                <mxCell id="46" value="" style="rounded=1;whiteSpace=wrap;html=1;fillColor=#d5e8d4;align=left;strokeColor=#82b366;" vertex="1" parent="1">
                    <mxGeometry x="570" y="410" width="160" height="60" as="geometry"/>
                </mxCell>
                <mxCell id="48" value="" style="rounded=1;whiteSpace=wrap;html=1;fillColor=#d5e8d4;align=left;strokeColor=#82b366;" vertex="1" parent="1">
                    <mxGeometry x="570" y="472" width="160" height="60" as="geometry"/>
                </mxCell>
                <mxCell id="49" value="" style="rounded=1;whiteSpace=wrap;html=1;fillColor=#d5e8d4;align=left;strokeColor=#82b366;" vertex="1" parent="1">
                    <mxGeometry x="570" y="534" width="160" height="60" as="geometry"/>
                </mxCell>
                <mxCell id="50" value="" style="rounded=1;whiteSpace=wrap;html=1;fillColor=#d5e8d4;align=left;strokeColor=#82b366;" vertex="1" parent="1">
                    <mxGeometry x="570" y="596" width="160" height="60" as="geometry"/>
                </mxCell>
                <mxCell id="53" value="" style="rounded=1;whiteSpace=wrap;html=1;fillColor=#d5e8d4;align=left;strokeColor=#82b366;" vertex="1" parent="1">
                    <mxGeometry x="570" y="660" width="160" height="60" as="geometry"/>
                </mxCell>
                <mxCell id="54" value="" style="rounded=1;whiteSpace=wrap;html=1;fillColor=#f8cecc;align=left;strokeColor=#b85450;" vertex="1" parent="1">
                    <mxGeometry x="570" y="722" width="160" height="60" as="geometry"/>
                </mxCell>
                <mxCell id="55" value="" style="rounded=1;whiteSpace=wrap;html=1;fillColor=#f8cecc;align=left;strokeColor=#b85450;" vertex="1" parent="1">
                    <mxGeometry x="570" y="784" width="160" height="60" as="geometry"/>
                </mxCell>
                <mxCell id="56" value="" style="rounded=1;whiteSpace=wrap;html=1;fillColor=#f8cecc;align=left;strokeColor=#b85450;" vertex="1" parent="1">
                    <mxGeometry x="570" y="348" width="160" height="60" as="geometry"/>
                </mxCell>
                <mxCell id="57" value="" style="rounded=1;whiteSpace=wrap;html=1;fillColor=#f8cecc;align=left;strokeColor=#b85450;" vertex="1" parent="1">
                    <mxGeometry x="570" y="286" width="160" height="60" as="geometry"/>
                </mxCell>
                <mxCell id="58" value="" style="rounded=1;whiteSpace=wrap;html=1;fillColor=#f8cecc;align=left;strokeColor=#b85450;" vertex="1" parent="1">
                    <mxGeometry x="570" y="846" width="160" height="60" as="geometry"/>
                </mxCell>
                <mxCell id="34" value="" style="endArrow=none;dashed=1;html=1;" edge="1" parent="1">
                    <mxGeometry width="50" height="50" relative="1" as="geometry">
                        <mxPoint x="20" y="410" as="sourcePoint"/>
                        <mxPoint x="780" y="410" as="targetPoint"/>
                    </mxGeometry>
                </mxCell>
                <mxCell id="35" value="" style="endArrow=none;dashed=1;html=1;" edge="1" parent="1">
                    <mxGeometry x="570" y="299" width="50" height="50" as="geometry">
                        <mxPoint x="20" y="720" as="sourcePoint"/>
                        <mxPoint x="780" y="720" as="targetPoint"/>
                    </mxGeometry>
                </mxCell>
            </root>
        </mxGraphModel>
    </diagram>
</mxfile>